<svg width="1200" height="800" viewBox="0 0 1200 800" fill="none" xmlns="http://www.w3.org/2000/svg">
  <rect width="1200" height="800" fill="#0A1018"/>
  <rect width="1200" height="800" fill="url(#bg)"/>
  <circle cx="170" cy="150" r="54" fill="#72E9FF" fill-opacity="0.14"/>
  <circle cx="1000" cy="130" r="44" fill="#F29A44" fill-opacity="0.16"/>
  <circle cx="1060" cy="626" r="5" fill="#72E9FF"/>
  <circle cx="135" cy="616" r="4" fill="#F5D580"/>
  <ellipse cx="600" cy="450" rx="315" ry="170" fill="#EDF1FA" fill-opacity="0.1"/>
  <ellipse cx="600" cy="450" rx="282" ry="144" fill="#D1D8E8" fill-opacity="0.85"/>
  <ellipse cx="600" cy="450" rx="215" ry="102" fill="#1D2435"/>
  <path d="M438 448C507 392 586 377 680 397C728 407 763 426 790 451" stroke="#F5D580" stroke-width="14" stroke-linecap="round"/>
  <path d="M440 482C500 436 588 423 684 440C727 448 761 464 791 484" stroke="#F5D580" stroke-width="14" stroke-linecap="round"/>
  <path d="M462 516C522 477 603 469 685 483C720 489 752 500 778 517" stroke="#F5D580" stroke-width="14" stroke-linecap="round"/>
  <path d="M760 412C820 404 876 388 927 359" stroke="#72E9FF" stroke-width="10" stroke-linecap="round" opacity="0.82"/>
  <path d="M760 447C842 446 916 431 980 396" stroke="#FF915A" stroke-width="10" stroke-linecap="round" opacity="0.82"/>
  <path d="M760 486C847 495 920 490 988 454" stroke="#72E9FF" stroke-width="10" stroke-linecap="round" opacity="0.82"/>
  <circle cx="520" cy="408" r="11" fill="#52D287"/>
  <circle cx="601" cy="457" r="11" fill="#52D287"/>
  <circle cx="690" cy="430" r="11" fill="#F29A44"/>
  <circle cx="655" cy="505" r="10" fill="#52D287"/>
  <text x="600" y="710" text-anchor="middle" fill="#F8F0E1" font-size="58" font-family="Cormorant Garamond, serif">Comet Noodles</text>
  <defs>
    <radialGradient id="bg" cx="0" cy="0" r="1" gradientUnits="userSpaceOnUse" gradientTransform="translate(600 360) rotate(90) scale(480 700)">
      <stop stop-color="#162130"/>
      <stop offset="1" stop-color="#0A1018"/>
    </radialGradient>
  </defs>
</svg>
