<svg width="1200" height="800" viewBox="0 0 1200 800" fill="none" xmlns="http://www.w3.org/2000/svg">
  <rect width="1200" height="800" fill="#0A0F1C"/>
  <rect width="1200" height="800" fill="url(#bg)"/>
  <circle cx="170" cy="140" r="3" fill="#F5D580"/>
  <circle cx="260" cy="230" r="5" fill="#72E9FF"/>
  <circle cx="1050" cy="110" r="4" fill="#FF89B5"/>
  <circle cx="980" cy="210" r="3" fill="#F5D580"/>
  <circle cx="200" cy="640" r="4" fill="#72E9FF"/>
  <circle cx="1060" cy="650" r="5" fill="#72E9FF"/>
  <ellipse cx="600" cy="450" rx="310" ry="165" fill="#E6EDF8" fill-opacity="0.14"/>
  <ellipse cx="600" cy="450" rx="275" ry="138" fill="#CAD8F2" fill-opacity="0.82"/>
  <ellipse cx="600" cy="450" rx="220" ry="95" fill="#A3F7D8" fill-opacity="0.22"/>
  <path d="M450 430C475 390 540 376 590 392C648 410 690 404 724 378C730 409 712 446 670 470C618 500 542 499 491 472C461 456 446 444 450 430Z" fill="#7CE8C7"/>
  <path d="M445 444C478 407 530 402 586 420C642 438 688 434 738 406" stroke="#F7F1D1" stroke-width="14" stroke-linecap="round"/>
  <path d="M454 470C503 438 559 438 613 454C664 469 709 464 748 445" stroke="#F7F1D1" stroke-width="14" stroke-linecap="round"/>
  <path d="M482 500C529 473 584 474 636 489C674 500 708 500 737 490" stroke="#F7F1D1" stroke-width="14" stroke-linecap="round"/>
  <circle cx="530" cy="393" r="12" fill="#2AC47C"/>
  <circle cx="680" cy="397" r="14" fill="#36D089"/>
  <circle cx="625" cy="512" r="11" fill="#2AC47C"/>
  <circle cx="495" cy="470" r="10" fill="#36D089"/>
  <circle cx="717" cy="470" r="9" fill="#36D089"/>
  <text x="600" y="710" text-anchor="middle" fill="#F8F0E1" font-size="58" font-family="Cormorant Garamond, serif">Lunar Herb Pasta</text>
  <defs>
    <radialGradient id="bg" cx="0" cy="0" r="1" gradientUnits="userSpaceOnUse" gradientTransform="translate(600 360) rotate(90) scale(480 700)">
      <stop stop-color="#182743"/>
      <stop offset="1" stop-color="#0A0F1C"/>
    </radialGradient>
  </defs>
</svg>
