<svg width="1200" height="800" viewBox="0 0 1200 800" fill="none" xmlns="http://www.w3.org/2000/svg">
  <rect width="1200" height="800" fill="#0E1020"/>
  <rect width="1200" height="800" fill="url(#bg)"/>
  <circle cx="180" cy="142" r="60" fill="#F5D580" fill-opacity="0.16"/>
  <circle cx="1018" cy="153" r="44" fill="#72E9FF" fill-opacity="0.12"/>
  <ellipse cx="600" cy="456" rx="310" ry="170" fill="#EDF1FA" fill-opacity="0.12"/>
  <ellipse cx="600" cy="456" rx="280" ry="144" fill="#D7DDEC" fill-opacity="0.88"/>
  <ellipse cx="600" cy="520" rx="170" ry="28" fill="#B58748" fill-opacity="0.4"/>
  <ellipse cx="600" cy="492" rx="154" ry="34" fill="#E2BA73"/>
  <ellipse cx="600" cy="458" rx="145" ry="33" fill="#E8C27C"/>
  <ellipse cx="600" cy="424" rx="135" ry="31" fill="#EDC885"/>
  <path d="M532 347C560 320 626 315 666 339C691 355 703 383 692 409" stroke="#F8F0E1" stroke-width="10" stroke-linecap="round" opacity="0.8"/>
  <circle cx="548" cy="410" r="12" fill="#F0DFA7"/>
  <circle cx="651" cy="437" r="12" fill="#F0DFA7"/>
  <text x="600" y="710" text-anchor="middle" fill="#F8F0E1" font-size="58" font-family="Cormorant Garamond, serif">Moonbeam Pancakes</text>
  <defs>
    <radialGradient id="bg" cx="0" cy="0" r="1" gradientUnits="userSpaceOnUse" gradientTransform="translate(600 350) rotate(90) scale(470 690)">
      <stop stop-color="#232A4C"/>
      <stop offset="1" stop-color="#0E1020"/>
    </radialGradient>
  </defs>
</svg>
