<svg width="1200" height="800" viewBox="0 0 1200 800" fill="none" xmlns="http://www.w3.org/2000/svg">
  <rect width="1200" height="800" fill="#0F0B18"/>
  <rect width="1200" height="800" fill="url(#bg)"/>
  <circle cx="180" cy="140" r="65" fill="#B98FFF" fill-opacity="0.18"/>
  <circle cx="1005" cy="150" r="52" fill="#72E9FF" fill-opacity="0.14"/>
  <circle cx="112" cy="638" r="5" fill="#F5D580"/>
  <circle cx="1051" cy="614" r="4" fill="#FF89B5"/>
  <circle cx="944" cy="92" r="3" fill="#72E9FF"/>
  <ellipse cx="600" cy="448" rx="290" ry="165" fill="#E9EFF9" fill-opacity="0.1"/>
  <ellipse cx="600" cy="448" rx="252" ry="137" fill="#D2DBEA" fill-opacity="0.88"/>
  <circle cx="600" cy="448" r="165" fill="#F3D2A4"/>
  <circle cx="600" cy="448" r="136" fill="#F7F0FB"/>
  <circle cx="520" cy="409" r="34" fill="#7A4DFF"/>
  <circle cx="585" cy="387" r="28" fill="#FF79A9"/>
  <circle cx="660" cy="404" r="30" fill="#6BDFFF"/>
  <circle cx="710" cy="455" r="32" fill="#8A58FF"/>
  <circle cx="640" cy="504" r="29" fill="#FF79A9"/>
  <circle cx="555" cy="515" r="31" fill="#6BDFFF"/>
  <circle cx="487" cy="468" r="27" fill="#FF79A9"/>
  <circle cx="617" cy="448" r="22" fill="#F8F0E1"/>
  <path d="M458 356C514 321 611 311 694 334C745 348 787 373 814 414" stroke="#F7D8FF" stroke-width="10" stroke-linecap="round" opacity="0.8"/>
  <text x="600" y="710" text-anchor="middle" fill="#F8F0E1" font-size="58" font-family="Cormorant Garamond, serif">Nebula Berry Tart</text>
  <defs>
    <radialGradient id="bg" cx="0" cy="0" r="1" gradientUnits="userSpaceOnUse" gradientTransform="translate(600 360) rotate(90) scale(480 700)">
      <stop stop-color="#291B49"/>
      <stop offset="1" stop-color="#0F0B18"/>
    </radialGradient>
  </defs>
</svg>
