<svg width="1200" height="800" viewBox="0 0 1200 800" fill="none" xmlns="http://www.w3.org/2000/svg">
  <rect width="1200" height="800" fill="#120E1A"/>
  <rect width="1200" height="800" fill="url(#bg)"/>
  <circle cx="172" cy="135" r="58" fill="#FF89B5" fill-opacity="0.12"/>
  <circle cx="1012" cy="144" r="46" fill="#72E9FF" fill-opacity="0.12"/>
  <ellipse cx="600" cy="450" rx="316" ry="168" fill="#ECF0F8" fill-opacity="0.12"/>
  <ellipse cx="600" cy="450" rx="286" ry="140" fill="#D6DDEB" fill-opacity="0.88"/>
  <rect x="390" y="350" width="420" height="210" rx="28" fill="#D59D56"/>
  <rect x="418" y="378" width="364" height="154" rx="20" fill="#F1D086"/>
  <circle cx="493" cy="426" r="18" fill="#F1605B"/>
  <circle cx="581" cy="456" r="16" fill="#57B868"/>
  <circle cx="653" cy="418" r="18" fill="#E34E5D"/>
  <circle cx="723" cy="472" r="17" fill="#57B868"/>
  <circle cx="543" cy="501" r="15" fill="#F1605B"/>
  <circle cx="677" cy="507" r="15" fill="#F4E7C5"/>
  <path d="M450 398C509 360 603 347 710 364" stroke="#F9F0DA" stroke-width="10" stroke-linecap="round" opacity="0.7"/>
  <text x="600" y="710" text-anchor="middle" fill="#F8F0E1" font-size="58" font-family="Cormorant Garamond, serif">Stardust Flatbread</text>
  <defs>
    <radialGradient id="bg" cx="0" cy="0" r="1" gradientUnits="userSpaceOnUse" gradientTransform="translate(600 350) rotate(90) scale(470 690)">
      <stop stop-color="#34203B"/>
      <stop offset="1" stop-color="#120E1A"/>
    </radialGradient>
  </defs>
</svg>
